{"title":"FirstAnalQuest - Love (mp4)","uid":11332207,"size":317684445,"categoryP":"porn","categoryS":"movie_clips","magnet":"?xt=urn:btih:77c73c74ce6728ed5b9349eea7983f69ccb72c5b&amp;dn=FirstAnalQuest+-+Love+%28mp4%29&amp;tr=udp%3A%2F%2Ftracker.openbittorrent.com%3A80&amp;tr=udp%3A%2F%2Fopen.demonii.com%3A1337&amp;tr=udp%3A%2F%2Ftracker.coppersurfer.tk%3A6969&amp;tr=udp%3A%2F%2Fexodus.desync.com%3A6969","seeders":0,"leechers":1,"uploader":"supertongo","files":1,"time":1414697523,"description":"FirstAnalQuest - Love\n\n\n:::Media info:::\n\nGeneral\n\nFormat                         : MPEG-4\nFormat profile                 : Base Media\nCodec ID                       : isom\nFile size                      : 303 MiB\nDuration                       : 32mn 29s\nOverall bit rate mode          : Constant\nOverall bit rate               : 1 304 Kbps\nWriting application            : Lavf54.59.106\n\nVideo\nID                             : 1\nFormat                         : MPEG-4 Visual\nFormat profile                 : Simple@L1\nFormat settings, BVOP          : No\nFormat settings, QPel          : No\nFormat settings, GMC           : No warppoints\nFormat settings, Matrix        : Default (H.263)\nCodec ID                       : 20\nDuration                       : 32mn 29s\nBit rate mode                  : Constant\nBit rate                       : 1 200 Kbps\nWidth                          : 704 pixels\nHeight                         : 576 pixels\nDisplay aspect ratio           : 1.222\nFrame rate mode                : Constant\nFrame rate                     : 29.970 fps\nStandard                       : PAL\nColor space                    : YUV\nChroma subsampling             : 4:2:0\nBit depth                      : 8 bits\nScan type                      : Progressive\nCompression mode               : Lossy\nBits/(Pixel*Frame)             : 0.099\nStream size                    : 279 MiB (92%)\nWriting library                : Lavc54.86.100\n\nAudio\nID                             : 2\nFormat                         : AAC\nFormat/Info                    : Advanced Audio Codec\nFormat profile                 : LC\nCodec ID                       : 40\nDuration                       : 32mn 29s\nBit rate mode                  : Constant\nBit rate                       : 96.0 Kbps\nChannel(s)                     : 2 channels\nChannel positions              : Front: L R\nSampling rate                  : 44.1 KHz\nCompression mode               : Lossy\nStream size                    : 22.3 MiB (7%)\n\n\nThumbs:\n &lt;a href=&quot;\nhttp://bayimg.com/DaCOkaAGI&quot; rel=&quot;nofollow&quot; target=&quot;_NEW&quot;&gt;\nhttp://bayimg.com/DaCOkaAGI&lt;/a&gt;","torrent":{"xt":"urn:btih:77c73c74ce6728ed5b9349eea7983f69ccb72c5b","amp;dn":"FirstAnalQuest+-+Love+%28mp4%29","amp;tr":["udp%3A%2F%2Ftracker.openbittorrent.com%3A80","udp%3A%2F%2Fopen.demonii.com%3A1337","udp%3A%2F%2Ftracker.coppersurfer.tk%3A6969","udp%3A%2F%2Fexodus.desync.com%3A6969"],"infoHash":"77c73c74ce6728ed5b9349eea7983f69ccb72c5b","infoHashBuffer":{"type":"Buffer","data":[119,199,60,116,206,103,40,237,91,147,73,238,167,152,63,105,204,183,44,91]},"announce":[],"urlList":[]}}